<svg xmlns="http://www.w3.org/2000/svg" width="412" height="296" viewBox="0 0 412 296">
  <g id="Group_1" data-name="Group 1" transform="translate(-1414 -528)">
    <rect id="Rounded_Rectangle_11" data-name="Rounded Rectangle 11" width="412" height="296" rx="10" transform="translate(1414 528)"/>
    <rect id="Rounded_Rectangle_17" data-name="Rounded Rectangle 17" width="54" height="3.18" rx="1.59" transform="translate(1456 565)" fill="#fff"/>
    <path id="Rounded_Rectangle_17_copy" data-name="Rounded Rectangle 17 copy" d="M1459.38,566.565l.863,50.816a1.588,1.588,0,1,1-3.176.054l-.863-50.816a1.588,1.588,0,1,1,3.176-.054Z" fill="#fff"/>
    <rect id="Rounded_Rectangle_17_copy_2" data-name="Rounded Rectangle 17 copy 2" width="54" height="3.19" rx="1.59" transform="translate(1732 565)" fill="#fff"/>
    <path id="Rounded_Rectangle_17_copy_2-2" data-name="Rounded Rectangle 17 copy 2" d="M1782.62,566.565l-.863,50.816a1.588,1.588,0,0,0,3.176.054l.862-50.816a1.588,1.588,0,1,0-3.176-.054Z" fill="#fff"/>
    <rect id="Rounded_Rectangle_17_copy_3" data-name="Rounded Rectangle 17 copy 3" width="54" height="3.19" rx="1.59" transform="translate(1456 778.81)" fill="#fff"/>
    <path id="Rounded_Rectangle_17_copy_3-2" data-name="Rounded Rectangle 17 copy 3" d="M1459.38,780.435l.863-50.816a1.588,1.588,0,1,0-3.176-.054l-.863,50.816a1.588,1.588,0,1,0,3.176.054Z" fill="#fff"/>
    <rect id="Rounded_Rectangle_17_copy_3-3" data-name="Rounded Rectangle 17 copy 3" width="54" height="3.19" rx="1.59" transform="translate(1732 778.81)" fill="#fff"/>
    <path id="Rounded_Rectangle_17_copy_3-4" data-name="Rounded Rectangle 17 copy 3" d="M1782.62,780.435l-.863-50.816a1.588,1.588,0,0,1,3.176-.054l.862,50.816a1.588,1.588,0,1,1-3.176.054Z" fill="#fff"/>
  </g>
</svg>
